/* XPM */
static char *b799c11ce94a46759be24579f00553eduesZUSFhTFIfYzMx[] = {
/* columns rows colors chars-per-pixel */
"128 128 23 1 ",
"  c black",
". c #647C7C",
"X c #A67E50",
"o c #BF9460",
"O c #D4A759",
"+ c #D6AC76",
"@ c #7B8F8F",
"# c #799C9C",
"$ c #989D9D",
"% c #92A4A4",
"& c #9DAAAA",
"* c #97BDBD",
"= c #A5B4B4",
"- c #A2BDBD",
"; c #E6C08E",
": c #E8D6BC",
"> c #A9C9C9",
", c #B1CCCC",
"< c #C3DEDE",
"1 c gray84",
"2 c #CCE3E3",
"3 c #DFEDED",
"4 c #EDFFFF",
/* pixels */
"44444444444444444444444444444444444444444444444444444444444444444444444444444444444444444444444444444444444444444444444444444444",
"44444444444444444444444444444444444444444444444444444444444444444444444444444444444444444444444444444444444444444444444444444444",
"44444444444444444444444444444444444444444444444444444444444444444444444444444444444444444444444444444444444444444444444444444444",
"44444444444444444444444444444444444444444444444444444444444444444444444444444444444444444444444444444444444444444444444444444444",
"44444444444444444444444444444444444444444444444444444444444444444444444444444444444444444444444444444444444444444444444444444444",
"44444444444444444444444444444444444444444444444444444444444444444444444444444444444444444444444444444444444444444444444444444444",
"44444444444444444444444444444444444444444444444444444444444444444444444444444444444444444444444444444444444444444444444444444444",
"44444444444444444444444444444444444444444444444444444444444444444444444444444444444444444444444444444444444444424444444444444444",
"44444444444444442444444444444444444444244444444444444444444444444444444444444444444444444444444444444444444444444444444444444444",
"44444444444444444444444444444444444444444444444444444444444444444444444444444444444444444444444444444444444444444444444444444444",
"44444444444444444444444444444444444444444444444444444444444444444444444444444444444442444444444444444444444444444444444444444444",
"44444444444444444444444444444444444444444444444444444444444444444444444444444444444444444444444444444444444444444444444444444444",
"44444444444444444444444444444444444444444444444444444444444444424444444444444444444444444444444444444444444444444444444444444444",
"44444444444444444444444444444444444444444444444444444444444444444444444444444444444444444444444444444444444444444444444444444444",
"44444444444444444444444444444444444444444444444444444444444444444444444444444444444444444444444444444444444444444444444444444444",
"44444444444444444444444444444444444444444444444444444444444444444444444444444444444444444444444444444444444444444444444444444444",
"44444444444444444444444444444444444444444444444444444444444444444444444444444444444444444444444444444444444444444444444444444444",
"44444444444444444444444444444444444444424444444444444444444444444444444444444444444444442444444444444444444444444444444444444444",
"44444444444444444444444444444444444444444444444444444444444444444444444444444444444444444444444444444444444444444444444444444444",
"44444444444444444<<<<<44444444444444444444444444444444444444444444444444444<<<44444444444444444444444444444444444444444444444444",
"444444444444444<<44444<<4444444444444444444444444444444444444444444444444<<<44<<<<4444444444444444444444444444444444444444444444",
"44444444444444<<4444444<<44444444444444444444444444444444444444444444444<<4444444<<444444444444444444444444444444444444444444444",
"4444444444444<<444444444<4444444444444444444444444444444444444444444<<<<44444444444<<4444444444444444444444444444444444444444444",
"4444444444444<4444444<<<<444444444444444444444444444444444444444444<<444444444444444<<444444444444444444444444444444444444444444",
"4444444444444<223333*<44<<444444444444444444444444444444444444444<<444444444444444444<<44444444444444444444444444444444444444444",
"4444442444444#22222**4444<444444444444444444444444444444444444444<44333333334444444444<<<444444444444444444444444444444444444444",
"4444444444441#####<*23344<4444444444444444444444444444444444444434433<<<<<<3444444444444<<<4444444444444444444444444444444444444",
"444444444444111111##222**444444444444444444444444444444444444444434<<<4444<<3344444444444444444444444444444444444444444444444444",
"4444444444444444411##***4444444444444444444444444444444444444444444<44444444<334444444444444444444444444444444444444444444444444",
"4444444444444444441111444444444444444444444444444444444444444444444,333344444<<4444444444444444444444444444444444444444444444444",
"4444444444444444444444444444444444444444444444444444444444444444444,,222344444<<444444444444444444424444444444444444444444444444",
"4444444444444444444444444444444444444444444444444444444444444444441##,,222444444<<<444444444444444444444444444444444244444444444",
"444444444444444444444444444444444444444444444444444444444444444444111###,,444444444444444444444444444444444444444444444444444444",
"44444444444444444444444444444444444444444444444444444444444444444441111111144444444444444444444444444444444444444444444444444444",
"44444444444444444444444444444444444444444444444444444444444444444444444444444444444444444444444444444444444444444444444444444444",
"44444444444444444444444444444444444444444444444444444444444444444444444444444444444444444444444444444444444444444444444444444444",
"44444444444444444444444444444444444444444444444444444444444444444444444444444444444444444444444444444444444444444444444444444444",
"44444444444444444444444444444444444444444444444444444444444444444444444444444444444444444444444444444444444444444444444444444444",
"44444444444444444444444444444444444444444444444444444444444444444444444444444444444444444444444444444444444444444444444444444444",
"44444444444444444444444444444444444444444444444444444444444444444444444444444444444444444444444444444444444444444444444444444444",
"44444444444444444444444444444444444444444444444444444444444444444444444444444444444444444444444444444444444444444444444444444444",
"444444444244444444444444444444444444444444444444444444444444444444444444       4444444444444444444444444444444444444444444444444",
"444444444444444444444444444444444444444442444444444444444444444444444444 oXooX   44444444444444444444444444444444444444444444444",
"44444444444444444444444444444444444444444444444444444444444      4444444 oXooXXo  4444444444444444444444444444444444444444444444",
"44444444444444444444444444444444444444444444   4444444444  ooXXX   44444 oXXooXXo  444444444444444444444444444444444444444444444",
"44444444444444444444444444444444444444444444 o  44444444  XooooXoo   444 ooXoooXoo   4444444444444444444444444444444444444444444",
"4444444444444444444444444444444444444444444  oo   44444  oXXoooXXooo 444  oXXooXXXoo  4444444444444444444444444444<<444444444444",
"4444444444444444444444      444444444444444 oXoooo 4444 oooXooooXXoo  444 ooXXoooXooo  4444444444444444444444444<<44<44444444444",
"4444444444444444444444 oooX   4444444444444 ooXooo   44 oooXXo                       o  444444444444444442444444<444<<4444444444",
"4444444444444444444444  ooXoo  444444444444  ooXoooo           ooooooooooooooooooooo       444444444444444444444<4444<4444444444",
"44444444444444444444444  ooXXo   44444444444 oo      oooooooooooooooooooooooooooooooo  :::     44444444444444444-2224<4444444444",
"444444444444444444444444  ooXXoo  4444444444    oooooooooooooooooooooooooooooooooooo  ::::::::   4444444444444441----<4444444444",
"4444444444444444444444444 oooXXoo  444444444  oooooooooooooooooooooooooooooooooooooo :::::::::::   44444444444444111444444444444",
"4444444444444444444444444  XooXXoo  444444   ooooooooooooooooooooooooooooooooooooooo :::::::::::::  4444444444444444444444444444",
"44444444444444444444444444  XXoXXoo  444   oooooooooooooooooooooooooooooooooooooooo  ::::::::::::::  444444444444444444444444444",
"444444444444444444444444444  XooXXoo     oooooooooooooooooooooooooooooooooooooooooo :::::::::::::::: 444444444444444444444444444",
"4444444444444444444444444444 XXXoXXo ++++++++++oooooooooooooooooooooooooooooooooooo ::::::::::: ::::  44444444444444444444444444",
"4444444444444444444444444444  oXXoo  ++++++++++++++oooooooooooooooooooooooooooooooo ::::::::::: :::::  4444444444444444444444444",
"44444444444444444444444444444 ooXXo ;;;;+++++++++++++++++++oooooooooooo++++++++++++ ::::::::::: ::::::  444444444444444444444444",
"44444444444444444444444444444 XooXX ;;;;;;;;+++++++++++++++++++++++++++++++++++  ++ ::::::::::: ::::::: 444444444444444444444444",
"44444444444444444444444444444 oXooo ;;;;;;;;;;;;;;+++++++++++++++++++++++++     +++ ::::::::::: ::::::: 444444444444444444444444",
"4444444444444444444444444444  oXooo :::;;;;;;;;;;;;;;;;+++++++++++++++++++  +++++++ ::::::::::::::::::: 244444444444444444444444",
"4444444444444444444444444444 XXooXX  ::::;;;;;;;;;;;;;;;;;;;;;;;;;;;;;;;;  ;;;;;;;; ::::::::::::::::::: 444444444444444444444444",
"4444444444444444444444444444 oooXXoo :::::::;;;;;;;;;;;;;;;;;;;;;;;;;;;; ;;;;;;;;;;; :::::::::::::::::: 444444444444444444444444",
"444444444444444444444444444  ooXXooo    :::::::;;;;;;;;;;;;;;;;;;;;;;;;  ;;;;;;;;;;; :::::::::::::::::: 444444444444444444444444",
"44444444444444444444444444  oXXXoXXX 44  ::::::::::::;;;;;;;;;;;;;;;;;; ;;;;;;;;;;;; :::::::::::::::::: 444444444444444444444444",
"44444444444444444444444444 XXXooXX   444   ::::::::::::::::;;;;;;;;;;;;  ;;;;;;;;;;; :::::::::::::::::  444444444444444444444444",
"4444444444444444444444444  oooXXXo 4444444    ::::::::::::::::::;;;;;;;; ;;;;;;; ;;;  :::::::::::::::  4444444444444444444444444",
"444444444444444444444444  oXXXXo   444444444   ::::::::::::::::::::::::::        :::: ::::::::::::::  44444444444444444444444444",
"44444444444444444444444  XXXoo   44444444444 oo   ::::::::::::::::::::::::::::::::::: :::::::::::::  444444444444444444444444444",
"44444444444444444444444 oXo    4444444444444 oooX    ::::::::::::::::::::::::::::::::  ::::::::::   4444444444444444444444444444",
"4444444444444444444444      4444444444444444 ooXXooo    :::::::::::::::::::::::::::    :::::::    444444444444444444444444444244",
"444444444444444444444444<<<4444============= oXXooo  ==      :::::::::::::::::::::: oo  ::     <44444444444444444444444444444444",
"44444444444444244444444441222%%&&&&&&&&&===  oXooo  ==== ooX       :::::::::::::::  oX     4444<44444444444444444444444444444444",
"44444444444444444444444411@%%%%%%%%%%%&&&&  oXo    ===== ooXoooXoo                 ooXoXo  ======4444444444444444444444444444444",
"444444444444444444444444$$.@@@%%%%%%%%%%%%      ========  XooooXoooo  ============ XXXoXo ===========444444444444444444444444444",
"444444444444444444444444$$...@@@@@%%%%%%%%%%%%%%%%%%%%===  oooXXoo   ============= ooooXo ============44444444444444444444444444",
"444444444444444444444444$$$$.....@@%%%%%%@@@@@@@@%%%%%%%%%  ooXO   ===============   ooX  ================4444444444424444444444",
"4444444444444444444444===$$$$$$$$..@@@@@@.......@@@@@@@@@@@     %%==================  oX =================4444444444444444444444",
"4444444444444444444444===$$$$$$$$$$.......$$$$$$$$$$$$$$$$$$$=========================  ==================4444444444444444444444",
"4444444444444444444444=======$$$$$$$$$$$$$$$$$$===========================================================4444444444444444444444",
"4444444444444444444444=============$$$$$$$================================================================4444444444444444444444",
"444444444444444444444444==================================================================================4444444444444444444444",
"444444444444444444444444=================================================================================44444444444444444444444",
"4444444444444444444444444================================================================================44444444444444444444444",
"4444444444<<444444444444444=======================================%===================================44444444444444444444444444",
"44444444<<44<444444444444444444===================================================================444444444444444444444444444444",
"44444444<444<<444444444444444444444===========================================================4444444424444444444444444444444444",
"44444444<4444<4444444444444444444444444444444============================================444444444444444444444444444444444444444",
"44444444-2224<4444444444444444444444444444444444444444444444444444444==============444444444444444444444444444444444444444444444",
"444444441----<444444444444444444444444444444444424444444444444444444444444444444444444444444444444444444444444444444444444444444",
"44444444411144444444444444444444444444444444444444444444444444444444444444444444444424444444444444444444444444444444444444444444",
"44444444444444444444444444444444444444444444444444444444444444444444444444444444444444444444444444444444444444444444444444444444",
"44444444444444444444444444444444444444444444444444444444444444444444444444444444444444444444444444444444444444444444444444444444",
"44444444444444444444444444444444444444444444444444444444444444444444444444444444444444444444444444444444444444444444444444444444",
"44444444444444444444444444444444444444444444444444444444444444444444444444444444444444444444444444444444444444444444444444444444",
"44444444444444444444444444444444444444444444444444444444444444444444444444444444444444444444444444444444444444444444444444444444",
"44444444444444444444444444444444444444444444444444444444444444444444444444444444444444444444444444444444444444444444444444444444",
"44444444444444444424444444444444444444444444444444444444444444444444444444444444444444444444444444444444444444444444444444444444",
"44444444444444444444444444444444444444444444444444444444444444444444444444244444444444444444444444444444444444444444444444444444",
"444444444444444444444444444444444444444444444444444444444444444444444444444444444444444444444444444444<<<<<<<<<44444444444444444",
"4444444444444444444444444444444444444444444444444444444444444444444444444444444444444444444444444444<<<4444444<<4444444444444444",
"444444444444444444444444444444444444444444444444444444444444444444444444444444444444444444444444444<<4444444444<<444444444444444",
"444444444444444444444444444444444442444444444444444444444444444444444444444444444444444444444444444<444444444444<444444444444444",
"444444444444444444444444444444444444444444444444444444444444444444444444444444444444444444444444444<222444444444<<44444444444444",
"444444444444444444444444444444444444444444444444444444444444444444444444444444444444444444444444444#-224444444444<44444444444444",
"444444444444444444444444444444444444444444444444444444444444444444444444444444444444444444444444444#--22222222222<44444444444444",
"444444444444444444444444444444444444444444444444444444444444444444444444444444444444444444444444441##---22222--->>44444444444444",
"4444444444444444444444444444444444444444444444444444444444444444444244444444444444444444444444444411##--------##>444444444444444",
"44444444444444444444444444444444444444444444444444444444444444444444444444444444444444444444444444411###########4444444444444444",
"44444444444444444444444444444444444444444444444444444444444444444444444444444444444444444444444444441111111111144444444444444444",
"44444444444444444444444444444444444444444444444444444444444444444444444444444444444444444444444444444444444444444444444444444444",
"44444444444444444444444444444444444444444444424444444444444444444444444444444444444444444444444444444444444444444444444444444444",
"44444444444444444444444444444444444444444444444444444444444444444444444444444444444444444444444444444444444444444444444444444444",
"44444444444444444444444444444444444444444444444444444444444444444444444444444444444444444444444444444444444444444444444444444444",
"44444444444444444444444444442444444444444444444444444444444444444444444444444444444444444444444444444444444444444444444444444444",
"444444444444444444444444444444444444444444444444444444444444444444444<<444444444444444444444444444444444444444444444444444444444",
"4444444444444444444444444444444444444444444444444444444444444444444<<44<44444444442444444444444444444444444444444444444444444444",
"4444444444444444444444444444444444444444444444444444444444444444444<444<<4444444444444444444444444444444444444444444444444444444",
"4444444444444444444444444444444444444444444444444444444444444444444<4444<4444444444444444444444444444444444444444444444444444444",
"4444444444444444444444444444444444444444444444444444444444444444444-2224<4444444444444444444444444444444444444444444444444444444",
"44444444444444444444444444444444444444444444444444444444444444444441----<4444444444444444444444444444444444444444444444444444444",
"44444444444444444444444444444444444444444444444444444444444444444444111444444444444444444444444444444444444444444444444444444444",
"44444444444444444444444444444444444444444444444444444444444444444444444444444444444444444444444444444444444444444444444444444444",
"44444444444444444444444444444444444444444444444444444444444444444444444444444444444444444444444444444444444444444444444444444444",
"44444444444444444444444444444444444444444444444444444444444444444444444444444444444444444444444444444444444444444444444444444444",
"44444444444444444444444444444444444444444444444444444444444444444444444444444444444444444444444444444444444444444444444444444444",
"44444444444444444444444444444444444444444444444444444444444444444444444444444444444444444444444444444444444444444444444444444444"
};
