/* XPM */
static char *be8b899d1bd14bf89b72d4ba922b171cnc7q8wKk0RRE7lw0[] = {
/* columns rows colors chars-per-pixel */
"128 128 48 1 ",
"  c black",
". c gray11",
"X c gray13",
"o c gray20",
"O c #BF790F",
"+ c #FF9D00",
"@ c #799C9C",
"# c #80A2A2",
"$ c #9FB3B3",
"% c #97BDBD",
"& c #9DBBBB",
"* c #9FBDBD",
"= c #A3B9B9",
"- c #A2BDBD",
"; c #A6C1C1",
": c #A9C9C9",
"> c #B0C5C5",
", c #B5C7C7",
"< c #BAC0C0",
"1 c #B6CACA",
"2 c #B8CFCF",
"3 c #BBD3D3",
"4 c #C6D7D7",
"5 c #C3DEDE",
"6 c #CBDBDB",
"7 c #CCDBDB",
"8 c #CFDFDF",
"9 c gray84",
"0 c #D3DBDB",
"q c #D7D8D8",
"w c #C9E0E0",
"e c #CCE3E3",
"r c #CEE5E5",
"t c #D0E0E0",
"y c #DDE3E3",
"u c #D7E8E8",
"i c #DFEDED",
"p c #DFF1F1",
"a c #E1EAEA",
"s c gray91",
"d c #E0F2F2",
"f c #E3F5F5",
"g c #E5F6F6",
"h c #E6F8F8",
"j c #E8FAFA",
"k c #E9FCFC",
"l c #EDFFFF",
"z c white",
/* pixels */
"llllllllllllllllllllllllllllllllllllllllllllllllllllllllllllllllllllllllllllllllllllllllllllllllllllllllllllllllllllllllllllllll",
"llllllllllllllllllllllllllllllllllllllllllllllllllllllllllllllllllllllllllllllllllllllllllllllllllllllllllllllllllllllllllllllll",
"llllllllllllllllllllllllllllllllllllllllllllllllllllllllllllllllllllllllllllllllllllllllllllllllllllllllllllllllllllllllllllllll",
"llllllllllllllllllllllllllllllllllllllllllllllllllllllllllllllllllllllllllllllllllllllllllllllllllllllllllllllllllllllllllllllll",
"llllllllllllllllllllllllllllllllllllllllllllllllllllllllllllllllllllllllllllllllllllllllllllllllllllllllllllllllllllllllllllllll",
"llllllllllllllllllllllllllllllllllllllllllllllllllllllllllllllllllllllllllllllllllllllllllllllllllllllllllllllllllllllllllllllll",
"llllllllllllllllllllllllllllllllllllllllllllllllllllllllllllllllllllllllllllllllllllllllllllllllllllllllllllllllllllllllllllllll",
"lllllllllllllllllllllllllllllllllllllllllllllllllllllllllllllllllllllllllllllllllllllllllllllllllllllllllllllllellllllllllllllll",
"llllllllllllllllelllllllllllllllllllllelllllllllllllllllllllllllllllllllllllllllllllllllllllllllllllllllllllllllllllllllllllllll",
"llllllllllllllllllllllllllllllllllllllllllllllllllllllllllllllllllllllllllllllllllllllllllllllllllllllllllllllllllllllllllllllll",
"lllllllllllllllllllllllllllllllllllllllllllllllllllllllllllllllllllllllllllllllllllllellllllllllllllllllllllllllllllllllllllllll",
"llllllllllllllllllllllllllllllllllllllllllllllllllllllllllllllllllllllllllllllllllllllllllllllllllllllllllllllllllllllllllllllll",
"llllllllllllllllllllllllllllllllllllllllllllllllll                   lllllllllllllllllllllllllllllllllllllllllllllllllllllllllll",
"llllllllllllllllllllllllllllllllllllllllllllllll  XXXXXXXooooooooooo     lllllllllllllllllllllllllllllllllllllllllllllllllllllll",
"llllllllllllllllllllllllllllllllllllllllllllll  XXXoooooooooooooooooooooo   llllllllllllllllllllllllllllllllllllllllllllllllllll",
"llllllllllllllllllllllllllllllllllllllllllll   XXXooooooooooooooooooooooooo   llllllllllllllllllllllllllllllllllllllllllllllllll",
"lllllllllllllllllllllllllllllllllllllllllll XXXXXooooooooooooooooooooooooooooo  llllllllllllllllllllllllllllllllllllllllllllllll",
"lllllllllllllllllllllllllllllllllllllllell XXXXoooooooooooooooooooooooooooooooo llllllllelllllllllllllllllllllllllllllllllllllll",
"llllllllllllllllllllllllllllllllllllllllll XXXooooooooooooooooooooooooooooooooo  lllllllllllllllllllllllllllllllllllllllllllllll",
"lllllllllllllllll55555lllllllllllllllllll XXXooooooooooooooooooooooooooooooooooo lllllllllllllllllllllllllllllllllllllllllllllll",
"lllllllllllllll55lllll55llllllllllllllll  XXoooooooooooooooooooooooooooooooooooo 5llllllllllllllllllllllllllllllllllllllllllllll",
"llllllllllllll55lllllll55llllllllllllll  XXXoooooooooooooooooooooooooooooooooooo  5lllllllllllllllllllllllllllllllllllllllllllll",
"lllllllllllll55lllllllll5llllllllllllll XXXoooooooooooooooooooooooooooooooooooooo l55lllllllllllllllllllllllllllllllllllllllllll",
"lllllllllllll5lllllll5555lllllllllllll  XXXoooooooooooooooooooooooooooooooooooooo  l55llllllllllllllllllllllllllllllllllllllllll",
"lllllllllllll5eeiiii%5ll55llllllllllll XXXoooooooooooooooooooooooooooooooooooooooo ll55lllllllllllllllllllllllllllllllllllllllll",
"llllllellllll@eeeee%%llll5llllllllllll XXoooooooooooooooooooooooooooooooooooooooooo ll555lllllllllllllllllllllllllllllllllllllll",
"llllllllllll9@@@@@5%eiill5lllllllllll  XXoooooooooooooooooooooooooooooooooooooooooo llll555lllllllllllllllllllllllllllllllllllll",
"llllllllllll999999@@eee%%llllllllllll XXoooooooooooooooooooooooozzoooooooooozzooooo  lllllllllllllllllllllllllllllllllllllllllll",
"lllllllllllllllll99@@%%%lllllllllllll XXoooooooooooooooooooooooozzoooooooooozzoooooo lllllllllllllllllllllllllllllllllllllllllll",
"llllllllllllllllll9999lllllllllllllll XXoooooooooooooooooooooooozzoooooooooozzoooooo lllllllllllllllllllllllllllllllllllllllllll",
"llllllllllllllllllllllllllllllllllll XXXoooooooooooooooooooooooozzoooooooooozzoooooo llllllllllllllellllllllllllllllllllllllllll",
"llllllllllllllllllllllllllllllllllllXXXooooooooooooooooooooooooozzoooooooooozzoooooo lllllllllllllllllllllllllllllllelllllllllll",
"llllllllllllllllllllllllllllllllllll XXooooooooooooooooooooooooozzoooooooooozzoooooo lllllllllllllllllllllllllllllllllllllllllll",
"llllllllllllllllllllllllllllllllllll XXooooooooooooooooooooooooozzoooooooooozzoooooo lllllllllllllllllllllllllllllllllllllllllll",
"llllllllllllllllllllllllllllllllllll XXooooooooooooooooooooooooXzzoooooooooXzzoooooo lllllllllllllllllllllllllllllllllllllllllll",
"llllllllllllllllllllllllllllllllllll XXooooooooooooooooooooooooXXooooooooooXXooooooo lllllllllllllllllllllllllllllllllllllllllll",
"llllllllllllllllllllllllllllllllllll XXoooooooooooooooooooooooooooooooo++++++ooooooo lllllllllllllllllllllllllllllllllllllllllll",
"llllllllllllllllllllllllllllllllllll XXoooooooooooooooooooooooooooooooo+++++++++oooo lllllllllllllllllllllllllllllllllllllllllll",
"llllllllllllllllllllllllllllllllllll XXooooooooooooooooooooooooooooooo++++++++++++++ lllllllllllllllllllllllllllllllllllllllllll",
"llllllllllllllllllllllllllllllllllll XXooooooooooooooooooooooooooooooo+++++++++++++++  lllllllllllllllllllllllllllllllllllllllll",
"llllllllllllllllllllllllllllllllllll XXooooooooooooooooooooooooooooooo+++++++++++++++++   llllllllllllllllllllllllllllllllllllll",
"lllllllllellllllllllllllllllllllllll XXoooooooooooooooooooooooooooooo++++++++++++++++++++   llllllllllllllllllllllllllllllllllll",
"llllllllllllllllllllllllllllllllllll XXoooooooooooooooooooooooooooooo++++++++++++++++++++++   llllllllllllllllllllllllllllllllll",
"llllllllllllllllllllllllllllllllllll XXoooooooooooooooooooooooooooooo+++++++++++++++++++++++++ lllllllllllllllllllllllllllllllll",
"llllllllllllllllllllllllllllllllllll XXoooooooooooooooooooooooooooooXX++++++++++++++++++++++++ lllllllllllllllllllllllllllllllll",
"llllllllllllllllllllllllllllllllllll XXoooooooooooooooooooooooooooooXXX++++++++++++++++++++   llllllllllllllllllllllllllllllllll",
"llllllllllllllllllllllllllllllllllll XXooooooooooooooooooooooooooooooXXXXX+++++++++++++     llllllllllllllllllllll55llllllllllll",
"llllllllllllllllllllllllllllllllllll XXooooooooooooooooooooooooooooooooXXXXXXXooooooo  lllllllllllllllllllllllll55ll5lllllllllll",
"llllllllllllllllllllllllllllllllllll XXoooooooooooooooooooooooooooooooooooooooooooooollllllllllllllllllllellllll5lll55llllllllll",
"lllllllllllllllllllllllllllllllllll  XXooooooooooooooooooooooooooooooooooooooooooooo  llllllllllllllllllllllllll5llll5llllllllll",
"lllllllllllllllllllllllllllllllllll XXXooooooooooooooooooooooooooooooooooozzzzzzzoooo llllllllllllllllllllllllll-eeel5llllllllll",
"lllllllllllllllllllllllllllllllllll Xoooooooooooooooooooooooooooooooooooozzzzzzzzzzzo llllllllllllllllllllllllll9----5llllllllll",
"lllllllllllllllllllllllllllllllllll Xooooooooooooooooooooooooooooooooooozzzzzzzzzzzzzz llllllllllllllllllllllllll999llllllllllll",
"lllllllllllllllllllllllllelllllllll Xoooooooooooooooooooooooooooooooooozzzzzzzzzzzzzzz lllllllllllllllllllllllllllllllllllllllll",
"lllllllllllllllllllllllllllllllllll Xooooooooooooooooooooooooooooooooozzzzzzzzzzzzzzzzz llllllllllllllllllllllllllllllllllllllll",
"llllllllllllllllllllllllllllllllll  Xooooooo.oooooooooo.oooooooooooooozzzzzzzzzzzzzzzzz  lllllllllllllllllllllllllllllllllllllll",
"llllllllllllllllllllllllllllllllll XXooooooo.oooooooooo.ooooooooooooozzzzzzzzzzzzzzzzzz  lllllllllllllllllllllllllllllllllllllll",
"llllllllllllllllllllllllllllllllll XXooooooo.oooooooooo.ooooooooooooozzzzzzzzzzzzzzzzzz o llllllllllllllllllllllllllllllllllllll",
"llllllllllllllllllllllllllllllllll XXoooooo.ooooooooooo.ooooooooooooozzzzzzzzzzzzzzzzzzz   lllllllllllllllllllllllllllllllllllll",
"lllllllllllllllllllllllllllllllll  Xooooooo.ooooooooooo.ooooooooooooozzzzzzzzzzzzzzzzzzz o lllllllllllllllllllllllllllllllllllll",
"lllllllllllllllllllllllllllllllll XXooooooo.ooooooooooo.oooooooooooozzzzzzzzzzzzzzzzzzzz o lllllllllllllllllllllllllllllllllllll",
"lllllllllllllllllllllllllllllllll XXooooooo.ooooooooooo.oooooooooooozzzzzzzzzzzzzzzzzzzz oo llllllllllllelllllllllllllllllllllll",
"lllllllllllllllllllllllllllllllll Xoooooooo.ooooooooooo.oooooooooooozzzzzzzzzzzzzzzzzzzz oo llllllllllllllllllllllllllllllllllll",
"llllllllllllllllllllllllllllllll5 Xoooooooo.oooooooooo.ooooooooooooozzzzzzzzzzzzzzzzzzzz oo  lllllllllllllllllllllllllllllllllll",
"llllllllllllllllllllllllllllll555 Xooooooo.ooooooooooo.oooooooooooozzzzzzzzzzzzzzzzzzzzz ooo lllllllllllllllllllllllllllllllllll",
"llllllllllllllllllllllllllll555ll Xooooooo.ooooooooooo.oooooooooooozzzzzzzzzzzzzzzzzzzzzz oo lllllllllllllllllllllllllllllllllll",
"llllllllllllllllllllllllllll5llll Xooooooo.ooooooooooo.oooooooooooozzzzzzzzzzzzzzzzzzzzzz oo lllllllllllllllllllllllllllllllllll",
"lllllllllllllllllllllllllll55llll XooooooX.oooooooooo.ooooooooooooozzzzzzzzzzzzzzzzzzzzzz oo lllllllllllllllllllllllllllllllllll",
"lllllllllllllllllllllllllll5lllll XooooooX.oooooooooo.ooooooooooooozzzzzzzzzzzzzzzzzzzzzz oo lllllllllllllllllllllllllllllllllll",
"lllllllllllllllllllllllllll5lllll XXoooooX.oooooooooo.ooooooooooooozzzzzzzzzzzzzzzzzzzzzz oo lllllllllllllllllllllllllllllllllll",
"llllllllllllllllllllllllll55lllll XXoooooX.oooooooooo.oooooooooooozzzzzzzzzzzzzzzzzzzzzzz  o lllllllllllllllllllllllllllllllllll",
"lllllllllllllllllllllllll55llllll XXoooooX.oooooooooo.oooooooooooozzzzzzzzzzzzzzzzzzzzzzzz o 5lllllllllllllllllllllllllllllllell",
"llllllllllllllllllllllll555llllll XXoooooX.oooooooooo.oooooooooooozzzzzzzzzzzzzzzzzzzzzzzz o  55llllllllllllllllllllllllllllllll",
"llllllllllllllellllllllll9eeeeeii XXoooooX.ooooooooo..oooooooooooozzzzzzzzzzzzzzzzzzzzzzzz oo l5llllllllllllllllllllllllllllllll",
"llllllllllllllllllllllll99-eeeeee XooooooX.ooooooooo.ooooooooooooozzzzzzzzzzzzzzzzzzzzzzzz oo llllllllllllllllllllllllllllllllll",
"llllllllllllllllllllllll99@---eee XooooooX.ooooooooo.ooooooooooooozzzzzzzzzzzzzzzzzzzzzzzz oo llllllllllllllllllllllllllllllllll",
"llllllllllllllllllllllll99@@@---- XooooooX.ooooooooo.ooooooooooooozzzzzzzzzzzzzzzzzzzzzzzz oo llllllllllllllllllllllllllllllllll",
"llllllllllllllllllllllll9999@@@@@ XoooooXX.ooooooooo.oooooooooooozzzzzzzzzzzzzzzzzzzzzzzzz oo lllllllllllllllllllllllellllllllll",
"lllllllllllllllllllllllll99999999 XoooooXX.oooooooo..oooooooooooozzzzzzzzzzzzzzzzzzzzzzzzz oo llllllllllllllllllllllllllllllllll",
"lllllllllllllllllllllllll99999999 XoooooXX.oooooooo.ooooooooooooozzzzzzzzzzzzzzzzzzzzzzzzz oo llllllllllllllllllllllllllllllllll",
"lllllllllllllllllllllllllllll9999 XoooooXX.oooooooo.ooooooooooooozzzzzzzzzzzzzzzzzzzzzzzzz oo llllllllllllllllllllllllllllllllll",
"lllllllllllllllllllllllllllllllll XXooooXXooooooooo.ooooooooooooozzzzzzzzzzzzzzzzzzzzzzzzz oo llllllllllllllllllllllllllllllllll",
"llllllllllllllllllllllllllllllllll XooooX.oooooooo..ooooooooooooozzzzzzzzzzzzzzzzzzzzzzzzz oo llllllllllllllllllllllllllllllllll",
"llllllllllllllllllllllllllllllllll XooooX.oooooooo.oooooooooooooozzzzzzzzzzzzzzzzzzzzzzzzz oo llllllllllllllllllllllllllllllllll",
"llllllllllllllllllllllllllllllllll XooooX.oooooooo.oooooooooooooozzzzzzzzzzzzzzzzzzzzzzzzz oo llllllllllllllllllllllllllllllllll",
"llllllllll55llllllllllllllllllllll XooooX.oooooooo.oooooooooooooozzzzzzzzzzzzzzzzzzzzzzzzz oo llllllllllllllllllllllllllllllllll",
"llllllll55ll5lllllllllllllllllllll XXoooX..oooooo..oooooooooooooozzzzzzzzzzzzzzzzzzzzzzzzz o lllllllllllllllllllllllllllllllllll",
"llllllll5lll55llllllllllllllllllll XXoooXX.oooooo.ooooooooooooooozzzzzzzzzzzzzzzzzzzzzzzzz   lllllllllelllllllllllllllllllllllll",
"llllllll5llll5llllllllllllllllllll XXooooX.oooooo.ooooooooooooooozzzzzzzzzzzzzzzzzzzzzzzzz  llllllllllllllllllllllllllllllllllll",
"llllllll-eeel5llllllllllllllllllll XXooooX.ooooo.oooooooooooooooozzzzzzzzzzzzzzzzzzzzzzzzz lllllllllllllllllllllllllllllllllllll",
"llllllll9----5llllllllllllllllllll XXooooX.ooooo.oooooooooooooooozzzzzzzzzzzzzzzzzzzzzzzzz lllllllllllllllllllllllllllllllllllll",
"lllllllll999llllllllllllllllllllll XXooooXX.ooo..oooooooooooooooozzzzzzzzzzzzzzzzzzzzzzzzz lllllllllllllllllllllllllllllllllllll",
"llllllllllllllllllllllllllllllllll XXoooooX.oo..ooooooooooooooooozzzzzzzzzzzzzzzzzzzzzzzzz lllllllllllllllllllllllllllllllllllll",
"llllllllllllllllllllllllllllllllll XXoooooX..o.oooooooooooooooooozzzzzzzzzzzzzzzzzzzzzzzzz lllllllllllllllllllllllllllllllllllll",
"llllllllllllllllllllllllllllllllll XXoooooXX...oooooooooooooooooozzzzzzzzzzzzzzzzzzzzzzzzz lllllllllllllllllllllllllllllllllllll",
"llllllllllllllllllllllllllllllllll XXoooooooooooooooooooooooooooozzzzzzzzzzzzzzzzzzzzzzzzz lllllllllllllllllllllllllllllllllllll",
"llllllllllllllllllllllllllllllllll XXoooooooooooooooooooooooooooozzzzzzzzzzzzzzzzzzzzzzzzz lllllllllllllllllllllllllllllllllllll",
"llllllllllllllllllllllllllllllllll XXoooooooooooooooooooooooooooozzzzzzzzzzzzzzzzzzzzzzzzz lllllllllllllllllllllllllllllllllllll",
"llllllllllllllllllelllllllllllllll XXoooooooooooooooooooooooooooozzzzzzzzzzzzzzzzzzzzzzzzz lllllllllllllllllllllllllllllllllllll",
"llllllllllllllllllllllllllllllllll XXoooooooooooooooooooooooooooozzzzzzzzzzzzzzzzzzzzzzzzz lllllllllllllllllllllllllllllllllllll",
"llllllllllllllllllllllllllllllllll XXoooooooooooooooooooooooooooozzzzzzzzzzzzzzzzzzzzzzzzz lllllllllll555555555lllllllllllllllll",
"lllllllllllllllllllllllllllllllll  XXooooooooooooooooooooooooooooozzzzzzzzzzzzzzzzzzzzzzzz lllllllll555lllllll55llllllllllllllll",
"lllllllllllllllllllllllllllllllll XXXooooooooooooooooooooooooooooozzzzzzzzzzzzzzzzzzzzzzzz llllllll55llllllllll55lllllllllllllll",
"lllllllllllllllllllllllllllllllll XXoooooooooooooooooooooooooooooozzzzzzzzzzzzzzzzzzzzzzz  llllllll5llllllllllll5lllllllllllllll",
"llllllllllllllllllllllllllllllll  XXoooooooooooooooooooooooooooooozzzzzzzzzzzzzzzzzzzzzzz lllllllll5eeelllllllll55llllllllllllll",
"llllllllllllllllllllllllllllffff XXXoooooooooooooooooooooooooooooozzzzzzzzzzzzzzzzzzzzzzz lllllllll#-eellllllllll5llllllllllllll",
"lllllllllllllllllllllllllliiffl XXXooooooooooooooooooooooooooooooozzzzzzzzzzzzzzzzzzzzzzz lllllllll@-;reeeeeeeeee5llllllllllllll",
"llllllllllllllllllllllllfuii666 XXXooooooooooooooooooooooooooooooozzzzzzzzzzzzzzzzzzzzzzz fllllllly@#---eeeee---::llllllllllllll",
"llllllllllllllllllllllliuf4466 XXXoooooooooooooooooooooooooooooooozzzzzzzzzzzzzzzzzzzzzz  fllfllllaq*@3--;----@@:lllllllllllllll",
"llllllllllllllllllllllii64664 XXXoooooooooooooooooooooooooooooooooozzzzzzzzzzzzzzzzzzzzz 6pjdiflfllay&@@@@@@@@@@llllllllllllllll",
"lllllllllllllllllllllif44l44  XXooooooooooooooooXXXXXXXXXXooooooooozzzzzzsssssssssszzzzz 66i8djjllllaya9y9q9999lllllllllllllllll",
"llllllllllllllllllllfi46f4   XXooooooooooooXXXXXXXX+++++++ooooooooozzsssss++++++++ssssss 444446i6lllflllllllllllllllllllllllllll",
"llllllllllllllllllllf4f644 XXXXoooooooooooXX++++++++++++++++++++ooozss++++++++++++++++ss 44444p446lfllllllllllllllllllllllllllll",
"llllllllllllllllllll66i44 XXXXXooooooooooXX++++++++++++++++++++++++++z+++++++++++++++++++   4444ppd86lllllllllllllllllllllllllll",
"llllllllllllllllllll6l44  XXXXXooooooooooXO++++++++++++++++++++++++++++ +++++++++++++++++++    444d4pdllllllllllllllllllllllllll",
"lllllllllllllllllllll44     XXXXXooooooooOO++++++++++++++++++++++++++++  OO++++++++++++++++++++  444ppklllllllllllllllllllllllll",
"llllllllllllllllllll64444644    XXXXXXXXXOOO++++++++++++++++++++++++++OO +O++++++++++++++++OOOOO  4474llllllllllllllllllllllllll",
"lllllllllllllllllll6fl474444444            OOOOOOOOOOOOOOOOOOOOOOOOOOOOO  OOOOOOOOOOOOOOOOOO      4666llllllllllllllllllllllllll",
"lllllllllllllllllll6l6864p4474447444444444                               4                  44464444dlllllllllllllllllllllllllll",
"llllllllllllllllllll644p4444446444444464444464444446444464444644444>6444144444744444744447444644444p46llllllllllllllllllllllllll",
"lllllllllllllllllllllld44l4p4t64p4466444446444444644446444464444446$,,24>4446444446444464444664p448f6lllllllllllllllllllllllllll",
"lllllllllllllllllllllllllll4p4p4444664p46hg6p446664p46t4p46t4p44666<2===w44t64p44t64p46t4p446p4446f6llllllllllllllllllllllllllll",
"llllllllllllllllllllllllllllkk64l4p4d44444p6lllffd4444p4444p444444p4<<044444p44444p4444p4444p46l6p4t6lllllllllllllllllllllllllll",
"llllllllllllllllllllllllllllllllllllllllllllllllllllllllllllllllllllllllllkk84l4pp84l4j48l4p48lll6llllllllllllllllllllllllllllll",
"llllllllllllllllllllllllllllllllllllllllllllllllllllllllllllllllllllllllllllllllllllllllllllllllllllllllllllllllllllllllllllllll",
"llllllllllllllllllllllllllllllllllllllllllllllllllllllllllllllllllllllllllllllllllllllllllllllllllllllllllllllllllllllllllllllll",
"llllllllllllllllllllllllllllllllllllllllllllllllllllllllllllllllllllllllllllllllllllllllllllllllllllllllllllllllllllllllllllllll",
"llllllllllllllllllllllllllllllllllllllllllllllllllllllllllllllllllllllllllllllllllllllllllllllllllllllllllllllllllllllllllllllll"
};
