/* XPM */
static char *_b46ae056e54481cb5adf22bb47d14bfK2Wl0USeRd1SbIoJ[] = {
/* columns rows colors chars-per-pixel */
"128 128 12 1 ",
"  c #799C9C",
". c #93A3A3",
"X c #97BDBD",
"o c #A2BDBD",
"O c #A9C9C9",
"+ c #C5D1D1",
"@ c #C3DEDE",
"# c gray84",
"$ c #CAE0E0",
"% c #CCE3E3",
"& c #DFEDED",
"* c #EDFFFF",
/* pixels */
"********************************************************************************************************************************",
"********************************************************************************************************************************",
"********************************************************************************************************************************",
"********************************************************************************************************************************",
"********************************************************************************************************************************",
"********************************************************************************************************************************",
"********************************************************************************************************************************",
"***************************************************************************************************************%****************",
"****************%*********************%*****************************************************************************************",
"********************************************************************************************************************************",
"*************************************************************************************%******************************************",
"********************************************************************************************************************************",
"***************************************************************%****************************************************************",
"********************************************************************************************************************************",
"********************************************************************************************************************************",
"********************************************************************************************************************************",
"********************************************************************************************************************************",
"***************************************%************************************************%***************************************",
"********************************************************************************************************************************",
"*****************@@@@@*************************************@@@@@@**********@@@**************************************************",
"***************@@*****@@*******************************@@@@*****@@@@@****@@@**@@@@**********************************************",
"**************@@*******@@****************************@@*************@@@*@@*******@@*********************************************",
"*************@@*********@**************************@@@****************@@***********@@*******************************************",
"*************@*******@@@@*************************@@******************@@************@@******************************************",
"*************@%%&&&&X@**@@***********************@@********************@@************@@*****************************************",
"******%****** %%%%%XX****@**********************@***********************@@&&**********@@@***************************************",
"************#     @X%&&**@*********************@@************************@@@************@@@*************************************",
"************######  %%%XX*********************@@***************************@@@**************************************************",
"*****************##  XXX**********************@*******************************@@@***********************************************",
"******************####***********************@**********************************@@@@@*******************************************",
"********************************************@@**************************************@@@@***********%****************************",
"********************************************@******************************************@@***************************%***********",
"*******************************************@@*******************************************@@@*************************************",
"*******************************************@**********************************************@@************************************",
"******************************************@@***********************************************@@***********************************",
"******************************************@******%%%%****************************************@@*********************************",
"*****************************************@*******ooo%%%%%%%%%%%%%%%***************************@*********************************",
"****************************************@@**********oooooooooooooo%%**************************@*********************************",
"****************************************@*************************o%%%%***********************@@********************************",
"****************************************@**************************ooo%%%%*********************@********************************",
"***************************************@*****************************oooo%%%%%%%***************@********************************",
"*********%****************************@@********************************oooooooo***************@********************************",
"**************************************@********************************************************@********************************",
"**************************************@********************************************************@********************************",
"*************************************@*********************************************************@@*******************************",
"*************************************@**********************************************************@*******************************",
"************************************@***********************************************************@*****************@@************",
"***********************************@@***********************************************************@***************@@**@***********",
"**********************************@@************************************************************@@*******%******@***@@**********",
"*********************************@@**************************************************************@**************@****@**********",
"********************************@@***************************************************************@@*************o%%%*@**********",
"********************************@*****************************************************************@*************#oooo@**********",
"*******************************@@**********%%*****************************************************@**************###************",
"*************************%****@@*******************************%***********************************@****************************",
"******************************@********************************************************************@@***************************",
"*****************************@@***********************%**************************************o%%****@***************************",
"****************************@@****************************************************************o%%***@***************************",
"****************************@*****************************************************************oo%%***@**************************",
"***************************@@******************************************************************o%%%%*@@*************************",
"**************************@@********************************************************************oo%%**@*************************",
"**************************@**********************************************************************oo%%*@@************************",
"*************************@@***********************************************************************oo%%*@%***********************",
"*************************@*************************************************************************oo%%%@***********************",
"*************************@**************************************************************************ooo%@***********************",
"************************@*************************************************************@***************ooo@**********************",
"************************@********%***************************************************@@******************@**********************",
"************************@***********************************************************@@*******************@@*********************",
"***********************@@*********************************************************@@@*********************@*********************",
"***********************@*********************************************************@@***********************@*********************",
"***********************@****************************************%%************@@@**************************@********************",
"***********************@***********%**************************** %%%%%%%%%@@@@@****************************@********************",
"**********************@@********* o%%***************************    @@@@@@@********************************@@****************%**",
"**********************@********** oo%***********************************************************************@*******************",
"**************%*******@********** oo%***********************************************************************@*******************",
"**********************@********** oo%%**********************************************************************@*******************",
"*********************@@**********   o%%*********************************************************************@*******************",
"*********************@************  oo%%*********************************************************************@******************",
"*********************@************  oooo%%*******************************************************************@*******%**********",
"******************** o*************   ooo%%%%****************************************************************@******************",
"******************** oo%************@   oooo%%%**************************************************************@******************",
"*******************  oo%**************@    ooo%%%%%**********************************************************@******************",
"******************* oo%%*****************@   ooooo%%*********************************************************@******************",
"******************  oo%********************@      oo*********************************************************@******************",
"****************$. ooo%*************************@   *********************************************************@******************",
"****************.. oo%%**************************************************************************************@@*****************",
"**********@@***$. ooo%%***************************************************************************************@@****************",
"********@@**@*$.. ooo%%%***************************************************************************************@@***************",
"********@***@@$.. ooo%%%*****************************************************************************%**********@***************",
"********@****+..  ooo%%%%***************************************************************************************@***************",
"********o%%%*+.. oooo%%%%***************************************************************************************@***************",
"********#ooo++.. oooo%%%%%**************************************************%%%%%*******************************@***************",
"*********###++.. ooooo%%%%%%%*********%%%****************************************%*****************************@@***************",
"************++.. oooooo%%%%%%%***********%%%%****************************************************************@@@****************",
"************++.. oooooooo%%%%%%%*************%%%%%%*******************************************************@@..##****************",
"************++..  ooooooooo%%%%%%%%****************%%%%%%**************************************@******@@@@....******************",
"************++...  oooooooooo%%%%%%%%%*******************%%*********************************@@@@*****@@....##*******************",
"************+++...   ooooooooooo%%%%%%%%%*************************************************@@@******@@....++*********************",
"************++++....   ooooooooooo%%%%%%%%%%%%******************************************@@*******@@@...+++**********************",
"************++++......        ooooooo%%%%%%%%%%%%******************************@@@@@@@@@*******@@@...++++***********************",
"*************+++++...........     ooooo%%%%%%%%%%%%%%****************************************@@@...++++*************************",
"*************++++++++...........    ooooooooo%%%%%%%%%%%%%%%%%%***************************@@@@...++++++@@@@@@@@*****************",
"**************++++++++++...........   oooooooooooo%%%%%%%%%%%%%%%%%%%%%%%%%%%%%%%%%%%%%@@@.....++++++@@*******@@****************",
"**************++++++++++++............       oooooooooooooooooooo%%%%%%%%%%%%%%%%%@@@@@@.....+++++++@**********@@***************",
"***************++++++++++++++++............     @@@@@@@@@@@@@@@@@@@@@@@@@@@@@@@@@@@........+++++++*@************@***************",
"***************++++++++++++++++++++.......................................................+++++++**@%%%*********@@**************",
"****************++++++++++++++++++++++..................................................+++++++**** o%%**********@**************",
"*****************+++++++++++++++++++++++++............................................++++++++***** oo%%%%%%%%%%%@**************",
"*******************++++++++++++++++++++++++++++++++++++++++++.......................++++++++******#  ooo%%%%%oooOO**************",
"********************++++++++++++++++++++++++++++++++++++++++++++++++++++++++++++++++++++++********##  oooooooo  O***************",
"************************++++++++++++++++++++++++++++++++++++++++++++++++++++++++++++++++***********##           ****************",
"***************************+++++++++++++++++++++++++++++++++++++++++++++++++++++++++****************###########*****************",
"********************************++++++++++++++++++++++++++++++++++++++++++++++**************************************************",
"*************************************++++++++++++++++++++++++++++++++++*********************************************************",
"*********************************************++++++++++++++++++++***************************************************************",
"********************************************************************************************************************************",
"****************************%***************************************************************************************************",
"*********************************************************************@@*********************************************************",
"*******************************************************************@@**@**********%*********************************************",
"*******************************************************************@***@@*******************************************************",
"*******************************************************************@****@*******************************************************",
"*******************************************************************o%%%*@*******************************************************",
"*******************************************************************#oooo@*******************************************************",
"********************************************************************###*********************************************************",
"********************************************************************************************************************************",
"********************************************************************************************************************************",
"********************************************************************************************************************************",
"********************************************************************************************************************************",
"********************************************************************************************************************************"
};
